<svg width="1000" height="1000" viewBox="0 0 1000 1000" fill="none" xmlns="http://www.w3.org/2000/svg">
<g clip-path="url(#clip0_3_8)">
<path fill-rule="evenodd" clip-rule="evenodd" d="M1000 500C1000 776.142 776.142 1000 500 1000C223.857 1000 -0.000488281 776.142 -0.000488281 500C-0.000488281 223.857 223.857 -0.000427246 500 -0.000427246C776.142 -0.000427246 1000 223.857 1000 500ZM276.786 575.759L528.409 121.214L503.247 424.24H729.708L478.084 878.785L503.247 575.759H276.786ZM605.108 292.451L551.847 309.893L605.108 327.334V383.79L638.033 338.116L691.299 355.559L658.379 309.893L691.299 264.226L638.033 281.669L605.108 235.995V292.451Z" fill="white"/>
</g>
<defs>
<clipPath id="clip0_3_8">
<rect width="1000" height="1000" fill="white"/>
</clipPath>
</defs>
</svg>
